<svg width="48" height="16" xmlns="http://www.w3.org/2000/svg"><path d="M9.155 11.942h-7.4V1.682H4.4v8.275h4.753v1.985zm9.157 0h-2.48v-.855q-.69.524-1.261.8-.572.268-1.364.268-1.282 0-1.978-.737-.69-.737-.69-2.177V4.204h2.495v3.838q0 .585.035.978.04.386.179.641.13.255.393.372.268.117.744.117.317 0 .703-.117.386-.117.744-.344V4.204h2.48v7.738zm6.38.206q-1.012 0-1.853-.24-.834-.242-1.454-.745-.613-.503-.95-1.268-.338-.765-.338-1.791 0-1.082.358-1.867.365-.786 1.013-1.303.627-.489 1.447-.716.82-.228 1.702-.228.792 0 1.46.173.669.172 1.248.447v2.116h-.352q-.144-.124-.351-.29-.2-.165-.496-.323-.283-.152-.62-.249-.338-.103-.786-.103-.992 0-1.53.634-.53.627-.53 1.709 0 1.116.544 1.695.552.579 1.558.579.468 0 .84-.104.38-.11.627-.255.234-.138.414-.29.179-.15.33-.295h.352v2.115q-.586.275-1.227.434-.634.165-1.405.165zm12.479-.206h-2.887l-2.17-3.37-.676.82v2.55h-2.48V1.22h2.48v6.401l2.674-3.417h2.859l-2.784 3.335 2.984 4.403zm4.76-2.736l1.765-5.002h2.55l-4.3 10.576h-2.688l1.227-2.893-3.011-7.683h2.604l1.853 5.002z" stroke-width=".265" fill="#000"/></svg>