<svg width="50" height="14" xmlns="http://www.w3.org/2000/svg"><path fill="none" d="M-1-1h52v16H-1z"/><g><path d="M.526 9.254q.063 0 .148-.042.317-.148.645-.275.34-.117.699-.117.307 0 .603.053.307.042.603.095.297.064.593.106.307.053.614.053.317 0 .603-.138.286-.137.53-.36.253-.222.444-.486.201-.275.339-.53.031-.063.052-.126.032-.064.032-.138 0-.064-.063-.106-.064-.042-.117-.042-.116 0-.275.233-.148.222-.37.497-.223.265-.53.497-.296.223-.72.223-.317 0-.624-.085-.296-.085-.592-.18-.297-.095-.603-.18-.297-.084-.614-.084.106-.254.2-.847.096-.603.202-1.355.116-.751.243-1.556.127-.804.286-1.47.17-.678.37-1.101.202-.434.466-.434.286 0 .392.222.106.212.148.476.053.254.095.477.042.211.19.211.128 0 .17-.063.042-.064.042-.18 0-.244-.063-.54-.053-.296-.19-.55-.138-.254-.35-.424-.201-.18-.508-.18-.254 0-.487.138-.233.138-.413.318-.37.38-.603 1.005-.222.624-.36 1.355-.137.72-.222 1.47-.085.752-.18 1.398-.084.645-.222 1.11-.127.456-.36.604-.095.053-.212.085-.116.021-.232.063-.106.032-.18.117-.074.074-.074.233 0 .074.042.169.042.095.106.18.063.085.148.137.085.064.159.064z"/><path d="M6.064 7.518q0 .201.01.466.021.254.085.487.074.222.222.38.159.16.445.16.296 0 .592-.18.307-.19.582-.455.276-.265.498-.561.233-.297.391-.519-.02.106-.02.201v.201q0 .17.01.434.02.254.095.487.074.233.212.402.137.17.38.17.308 0 .646-.233.339-.233.656-.561.318-.328.572-.678.254-.36.38-.613L11.864 7q.032-.064.032-.117 0-.084-.032-.137-.02-.064-.116-.064-.095 0-.19.127l-.138.19q-.085.138-.297.424-.2.286-.444.582-.243.286-.487.508-.243.212-.402.212-.106 0-.17-.085-.063-.095-.095-.212-.031-.127-.042-.254-.01-.127-.01-.2 0-.244.031-.551.032-.307.085-.614.063-.307.137-.603.085-.296.17-.53l.063-.19q.043-.106.043-.211 0-.117-.074-.149-.064-.031-.16-.031-.137 0-.232.074-.085.063-.148.17-.064.094-.106.221-.042.117-.085.212-.063.159-.211.423-.149.265-.34.583-.19.306-.412.624-.222.317-.455.582-.222.254-.444.423-.212.16-.392.16-.148 0-.18-.16-.021-.158-.021-.264 0-.275.042-.603.053-.329.117-.657.074-.338.158-.656.096-.317.18-.582l.043-.17q.031-.095.031-.18 0-.232-.243-.232t-.444.138q-.191.137-.276.38-.148.456-.222.964-.063.497-.063.973z"/><path d="M12.742 9.127q.465 0 .9-.159.433-.148.804-.412.37-.265.677-.614.307-.36.53-.752.03-.053.063-.116.031-.064.031-.127 0-.17-.169-.17-.106 0-.19.096-.075.095-.127.18-.17.285-.403.56-.222.265-.497.477-.265.2-.582.328-.318.127-.667.127-.233 0-.402-.095-.159-.096-.265-.254-.095-.16-.137-.35-.043-.2-.043-.402 0-.233.085-.624.085-.392.244-.773.158-.38.391-.656.233-.275.53-.275.18 0 .21.137.043.127.043.276 0 .232-.095.423-.095.18-.095.296 0 .106.116.106.159 0 .265-.095.106-.095.159-.233.052-.138.074-.286.02-.158.02-.285 0-.424-.232-.614-.222-.19-.624-.19-.477 0-.847.264t-.625.667q-.254.391-.38.867-.128.466-.128.879 0 .317.075.635.074.317.243.582.17.254.423.413.265.169.625.169z"/><path d="M16.193 7.38q.16.054.307.128.148.074.297.158.36.18.709.381.36.191.72.37.084.043.158.075.085.032.17.032.074 0 .148-.021.074-.032.074-.127 0-.149-.106-.265-.106-.127-.222-.212-.307-.211-.635-.391-.318-.19-.646-.37-.201-.117-.402-.223-.19-.106-.402-.19.508-.487 1.016-.964.518-.476 1.069-.92.084-.074.18-.17.105-.105.105-.222 0-.085-.074-.159-.063-.084-.148-.084-.106 0-.212.095-.095.095-.169.159-.487.465-.974.91-.486.444-.952.931.106-.931.265-1.83.169-.91.38-1.821l.191-.804q.106-.413.254-.815.042-.117.074-.233Q17.4.68 17.4.565q0-.286-.265-.286-.37 0-.571.244-.201.243-.297.56-.211.7-.349 1.419-.127.72-.243 1.44-.148.962-.233 1.925-.085.963-.085 1.937v.466q0 .254.01.508l.022.497q.021.254.064.455.02.117.074.201.063.095.2.095.096 0 .149-.052.063-.053.085-.127.031-.075.031-.16.01-.084.01-.158 0-.243.022-.476l.042-.476.043-.604q.031-.296.084-.592zM20.475 13.276q.254 0 .486-.096.233-.095.434-.243.201-.148.37-.35.18-.19.308-.39.391-.604.603-1.303.222-.698.328-1.439.116-.73.138-1.471.031-.751.031-1.45v-.265q0-.18-.02-.37-.011-.19-.054-.36-.031-.17-.095-.211-.106-.075-.212-.075-.127 0-.222.106-.085.106-.159.19-.38.488-.751.985-.36.487-.794.931-.042.043-.148.138-.095.095-.212.19-.105.096-.211.17-.106.074-.17.074-.084 0-.095-.085-.01-.085-.01-.137 0-.149.042-.37.053-.223.116-.467.074-.243.148-.465l.138-.36q.053-.127.138-.307.084-.19.084-.328 0-.18-.137-.307-.138-.127-.318-.127-.148 0-.243.085-.095.084-.159.211-.053.096-.085.202-.02.095-.053.2-.148.456-.264.943-.106.486-.106.963 0 .137.021.296.021.148.085.275.063.117.17.201.116.074.296.074.264 0 .624-.254.37-.264.73-.614.36-.36.656-.72.307-.37.434-.592.032.826.032 1.64v.307q0 .149-.01.297-.413.264-.9.656-.476.392-.9.847-.412.465-.698.984-.275.518-.275 1.048 0 .211.042.412.053.212.159.37.106.16.275.255.17.106.413.106zm1.83-4.223q-.031.35-.116.772-.085.434-.212.868-.116.434-.285.826-.159.402-.37.677-.075.095-.17.201-.095.117-.212.212-.106.095-.233.159-.116.063-.243.063t-.212-.074q-.074-.063-.127-.17-.042-.095-.063-.222-.01-.116-.01-.211 0-.466.222-.91.232-.445.571-.847.339-.392.73-.73.392-.339.73-.614zM25.45 4.11q.116 0 .148-.095.042-.095.053-.19l.031-.424q.032-.296.064-.613.032-.318.053-.561l.021-.265q0-.148-.106-.254-.106-.116-.254-.116-.148 0-.254.116-.095.106-.095.254l.01.138q.011.116.022.307.01.18.02.402.022.211.033.412.02.202.031.37l.032.223q.021.085.042.19.032.106.149.106zM27.834 5.423q.127.307.296.614.17.307.328.624.159.307.265.635.106.328.106.667 0 .212-.064.423-.053.212-.18.392.19.01.445-.159.254-.18.508-.413.254-.243.465-.487.212-.254.307-.402.053-.074.127-.17.074-.105.18-.105.095 0 .127.064.032.063.032.148 0 .053-.042.116-.032.053-.053.106-.297.466-.625.836-.328.37-.72.625-.38.254-.857.38-.465.138-1.037.138-.307 0-.667-.063-.349-.064-.582-.286-.053-.053-.084-.106-.032-.053-.032-.127 0-.159.17-.159.063 0 .094.021.043.022.096.053.18.117.36.16.18.041.391.041.423 0 .635-.254.222-.264.222-.666 0-.244-.074-.519-.063-.275-.17-.55-.105-.275-.242-.53-.127-.264-.254-.455-.075.212-.191.477-.106.254-.243.508-.138.254-.297.487-.148.232-.307.391-.053.053-.127.117-.063.052-.148.052-.148 0-.148-.148 0-.084.042-.148.032-.063.085-.127.72-.9 1.08-2.021-.096-.275-.096-.561 0-.159.053-.37.053-.212.148-.403.096-.19.244-.328.148-.137.338-.137.096 0 .16.063.073.053.105.148.042.085.053.18.021.095.021.18 0 .265-.074.54-.074.264-.17.508zM35.503 4.968q.18-.043.434-.148.254-.106.53-.254.274-.149.539-.329.265-.19.476-.391.222-.212.35-.423.137-.212.137-.424 0-.233-.18-.391-.17-.16-.444-.265-.265-.116-.604-.18-.328-.063-.656-.095t-.614-.042q-.275-.011-.434-.011.053-.265.106-.582.064-.328.17-.572.02-.042.02-.074 0-.063-.073-.074-.064-.01-.106-.01-.19 0-.392.084-.38.159-.497.53-.106.36-.19.73-.276.02-.551.063-.275.032-.55.074-.117.021-.265.064-.159.032-.159.19 0 .138.16.138.084 0 .168-.01.075-.022.16-.033.232-.031.465-.042l.476-.042q-.243 1.122-.423 2.244-.18 1.11-.307 2.254-.042.349-.074.709l-.064.698-.042.403q-.01.2-.01.402 0 .116.126.137.138.032.223.032.285 0 .412-.074.127-.064.233-.339.286 0 .688-.063.402-.074.836-.201.434-.138.857-.328.434-.19.762-.445.34-.254.55-.56.212-.308.212-.668 0-.37-.275-.656-.275-.285-.666-.487-.392-.211-.815-.338-.413-.138-.699-.201zm-1.058.243q.2.032.487.095.285.053.603.149.328.084.645.211.318.117.572.286.254.159.413.37.158.212.158.466 0 .233-.19.434-.18.19-.476.36-.297.159-.656.296-.36.127-.72.222-.35.085-.656.149-.307.052-.487.063-.01-.106-.01-.201v-.212q0-.677.105-1.344l.212-1.344zm2.9-2.085q0 .318-.35.582-.338.265-.804.477-.466.2-.931.338-.466.138-.72.201l.19-1.143q.096-.582.212-1.153.117 0 .328.01.223.01.487.032.275.021.55.074.286.043.508.127.233.074.381.19.149.107.149.265zM39.951 9.307q.328 0 .656-.212.329-.2.625-.497t.529-.635q.243-.339.402-.593.053-.085.106-.18.053-.095.053-.2 0-.075-.032-.128-.032-.063-.116-.063-.085 0-.138.042-.042.042-.084.106-.075.106-.138.222-.064.106-.138.212-.105.148-.285.37-.17.222-.381.434-.201.201-.424.35-.222.137-.412.137-.223 0-.35-.201-.127-.201-.2-.476-.075-.276-.096-.55-.021-.287-.021-.445v-.233q.01-.148.042-.233.021-.074.074-.159.064-.084.106-.148.127-.212.254-.402.138-.201.254-.413.243-.434.476-.984.233-.55.424-1.132.19-.583.307-1.165.116-.582.116-1.08 0-.147-.032-.317-.032-.169-.106-.307-.063-.148-.19-.232-.117-.096-.307-.096-.233 0-.466.17-.222.17-.423.423-.19.244-.339.508-.148.265-.233.455-.444 1.027-.624 2.117-.18 1.08-.18 2.19 0 .202.01.53.022.328.064.709.043.37.127.751.085.37.233.678.148.296.35.486.21.19.507.19zm1.006-8.7q.063 0 .095.053.032.043.042.106.021.064.021.138v.095q0 .508-.158 1.122-.16.614-.402 1.238-.233.614-.53 1.196-.285.571-.54 1.005-.01-.084-.01-.148v-.159q0-.762.18-1.587.19-.836.413-1.566.042-.127.116-.381.085-.254.19-.498.117-.243.265-.423.148-.19.318-.19z"/><path d="M41.929 7.688q0 .233.052.487.053.253.17.455.116.2.307.328.2.137.487.137.222 0 .433-.084.212-.075.392-.19.307-.202.519-.488.211-.286.349-.614.137-.328.201-.677.063-.36.063-.709 0-.243-.052-.497-.043-.254-.16-.466-.105-.212-.296-.35-.19-.137-.486-.137-.477 0-.847.296-.36.286-.614.71-.254.423-.391.91-.127.486-.127.889zm1.979-2.106q.169 0 .275.105.106.096.17.244.063.137.084.307.021.17.021.296 0 .244-.042.508-.043.254-.138.498-.085.243-.233.465-.137.212-.338.37-.106.085-.233.149-.117.053-.254.053-.159 0-.265-.085-.106-.095-.17-.222-.052-.127-.073-.275-.021-.16-.021-.286 0-.244.074-.603.084-.36.232-.699.16-.339.381-.582.233-.243.53-.243zM48.841 5.084q.149 0 .276.053.137.042.243.095.106.053.19.106.085.042.138.042.042 0 .074-.02.043-.033.043-.085 0-.149-.138-.254-.138-.117-.328-.18-.19-.074-.381-.106-.19-.042-.307-.042-.572 0-1.069.222-.497.211-.9.614-.2.2-.38.455-.18.254-.318.54-.138.285-.222.592-.074.296-.074.582 0 .19.031.37.043.18.127.318.096.138.244.222.148.085.37.085.318 0 .646-.212.338-.211.635-.508.296-.307.54-.635.254-.338.402-.592.02.211.02.434.011.211.011.423 0 .254-.052.71-.043.444-.138.962-.095.53-.254 1.058-.148.54-.36.974-.212.445-.487.72-.264.275-.603.275-.148 0-.222-.074-.064-.064-.117-.159-.042-.085-.095-.159-.042-.063-.137-.063-.106 0-.17.074-.063.085-.063.18 0 .053.02.095l.043.106q.127.222.328.328.201.106.455.106.657 0 1.112-.381.455-.381.762-.995.307-.603.486-1.365.18-.762.265-1.524.095-.762.116-1.44.032-.687.032-1.142 0-.18-.106-.297-.095-.116-.285-.116-.223 0-.381.19-.16.18-.244.36-.084.212-.328.572-.243.36-.55.709-.297.338-.625.592-.317.244-.56.244-.191 0-.265-.117-.064-.127-.064-.296 0-.222.085-.476.095-.254.233-.498.137-.243.296-.455.17-.222.318-.38.328-.34.751-.583.434-.254.931-.254z"/></g></svg>