<svg xmlns="http://www.w3.org/2000/svg" width="65" height="19" version="1.1"><path d="M-1 4h52v16H-1z" style="fill:none"/><g style="stroke-width:.72845292"><path d="M.595 13.2q.082 0 .193-.06.414-.213.843-.396.444-.17.914-.17.4 0 .788.077.401.06.788.137.388.093.775.153.401.077.802.077.415 0 .788-.2.374-.197.693-.519.33-.32.58-.7.263-.397.443-.765.041-.09.068-.181.042-.092.042-.2 0-.091-.082-.152-.084-.06-.153-.06-.152 0-.36.335-.193.32-.483.717-.291.382-.693.717-.387.321-.94.321-.415 0-.816-.122-.387-.123-.774-.26-.388-.137-.788-.26-.388-.12-.803-.12.139-.367.262-1.222.125-.87.264-1.954.151-1.083.317-2.243t.374-2.12q.222-.977.484-1.587.264-.626.609-.626.374 0 .512.32.139.306.194.686.069.366.124.688.055.304.248.304.167 0 .222-.09.055-.093.055-.26 0-.352-.082-.779-.07-.427-.248-.793-.18-.366-.458-.611-.263-.26-.664-.26-.332 0-.636.2-.305.198-.54.458-.484.548-.788 1.449-.29.9-.47 1.954-.18 1.038-.29 2.12-.112 1.084-.236 2.015-.11.93-.29 1.6-.166.658-.47.872-.125.076-.278.122-.151.03-.303.09-.139.047-.235.17-.097.106-.097.336 0 .106.055.243t.138.26q.083.122.194.197.11.093.208.093z" style="stroke-width:.72845292"/><path d="M7.833 10.698q0 .29.013.671.027.367.11.703.097.32.29.548.209.23.582.23.387 0 .774-.26.401-.273.76-.655.362-.382.652-.81.304-.427.51-.748-.025.153-.025.29v.29q0 .245.013.626.026.366.124.702.097.336.277.58.179.245.497.245.402 0 .844-.336.443-.336.857-.81.416-.472.748-.977.332-.519.496-.884l.058-.152q.042-.093.042-.17 0-.12-.042-.197-.026-.092-.152-.092-.124 0-.248.183l-.18.274q-.111.2-.389.612-.26.412-.58.839-.317.412-.636.732-.318.306-.526.306-.138 0-.222-.123-.082-.137-.124-.305-.04-.183-.055-.367-.013-.183-.013-.288 0-.352.04-.794.042-.443.112-.886.082-.442.179-.87.11-.426.222-.763l.082-.274q.056-.153.056-.305 0-.168-.096-.215-.084-.044-.21-.044-.179 0-.303.106-.11.091-.193.246-.084.135-.139.318-.055.169-.11.306-.083.23-.277.61-.194.382-.444.84-.248.442-.538.9-.29.457-.595.84-.29.366-.58.61-.277.23-.513.23-.193 0-.235-.23-.027-.228-.027-.381 0-.397.055-.87.069-.474.152-.947.097-.487.207-.946.125-.457.235-.84l.056-.244q.041-.137.041-.26 0-.334-.318-.334-.317 0-.58.199-.25.197-.36.548-.194.657-.29 1.39-.083.716-.083 1.403z" style="stroke-width:.72845292"/><path d="M16.56 13.018q.608 0 1.177-.23.566-.213 1.05-.594.484-.382.885-.885.401-.52.693-1.084.04-.077.082-.168.04-.092.04-.183 0-.245-.22-.245-.139 0-.248.138-.098.137-.166.26-.223.411-.527.807-.29.383-.65.688-.346.289-.76.473-.416.183-.872.183-.305 0-.525-.137-.208-.138-.347-.366-.124-.23-.179-.505-.056-.288-.056-.58 0-.335.111-.899.111-.565.319-1.115.206-.547.511-.945.305-.397.693-.397.235 0 .274.198.056.183.056.398 0 .334-.124.61-.124.259-.124.426 0 .153.152.153.207 0 .346-.137.139-.137.208-.336.068-.199.096-.412.027-.228.027-.411 0-.612-.304-.885-.29-.274-.815-.274-.624 0-1.107.38-.484.38-.817.962-.332.564-.497 1.25-.167.672-.167 1.268 0 .457.098.915.097.457.318.84.222.366.553.595.346.244.816.244z" style="stroke-width:.72845292"/><path d="M21.07 10.499q.21.077.402.184.193.107.388.228.47.26.927.55.47.275.94.533.11.062.207.108.111.046.222.046.097 0 .194-.03.097-.046.097-.183 0-.215-.139-.382-.139-.184-.29-.306-.401-.304-.83-.564-.416-.274-.844-.533-.263-.17-.526-.322-.248-.153-.525-.274.664-.702 1.328-1.39.677-.686 1.397-1.326.11-.107.235-.246.137-.151.137-.32 0-.122-.096-.229-.083-.121-.194-.121-.138 0-.277.137-.124.137-.22.23-.637.67-1.274 1.311-.635.64-1.244 1.343.139-1.343.346-2.639.221-1.312.497-2.626l.25-1.159q.138-.595.332-1.175.055-.169.096-.336.042-.17.042-.336 0-.412-.346-.412-.484 0-.746.351-.263.35-.389.808-.275 1.01-.456 2.046-.166 1.038-.317 2.076-.194 1.387-.305 2.776-.11 1.388-.11 2.793v.672q0 .366.012.732l.029.717q.027.366.084.656.026.169.096.29.083.137.262.137.125 0 .194-.075.083-.077.111-.183.041-.108.041-.231.013-.121.013-.228 0-.35.029-.686l.055-.687.056-.87q.04-.427.11-.854zM26.668 19q.332 0 .635-.138.305-.137.567-.35.263-.214.484-.505.235-.274.403-.563.51-.87.788-1.879.29-1.006.428-2.075.152-1.052.18-2.12.041-1.083.041-2.091v-.382q0-.26-.026-.534-.014-.274-.07-.519-.041-.245-.125-.304-.138-.108-.277-.108-.166 0-.29.152-.111.153-.208.274-.496.704-.981 1.42-.47.703-1.038 1.343-.055.062-.193.2-.125.136-.277.273-.138.138-.276.245-.139.107-.222.107-.11 0-.125-.123-.013-.122-.013-.197 0-.215.055-.534.07-.321.152-.673.097-.35.193-.67l.18-.52q.07-.183.181-.442.11-.274.11-.473 0-.26-.18-.443t-.415-.183q-.193 0-.317.122-.125.122-.208.305-.07.138-.111.291-.026.137-.07.288-.193.658-.345 1.36-.138.7-.138 1.389 0 .197.027.426.028.214.111.397.083.169.223.29.151.106.386.106.345 0 .816-.366.484-.38.954-.885.47-.52.857-1.038.402-.534.568-.854.041 1.191.041 2.365v.443q0 .214-.013.428-.54.38-1.176.946-.622.565-1.176 1.22-.539.671-.912 1.42-.36.747-.36 1.51 0 .305.055.595.07.306.208.533.138.231.36.368.221.153.54.153zm2.392-6.09q-.04.505-.152 1.114-.11.626-.277 1.252-.151.625-.372 1.19-.208.58-.484.977-.098.137-.222.29-.124.168-.277.305-.139.137-.305.23-.151.09-.317.09t-.277-.106q-.097-.091-.166-.245-.055-.137-.083-.32-.013-.168-.013-.305 0-.672.29-1.312.304-.642.747-1.221.443-.565.954-1.053.512-.489.954-.885zm4.11-7.127q.152 0 .194-.136.054-.137.069-.274l.04-.612q.042-.427.084-.884.042-.458.07-.809l.027-.382q0-.213-.139-.366-.138-.167-.332-.167-.193 0-.332.167-.124.153-.124.366l.013.2q.015.167.029.442.013.26.026.58.029.304.043.594.026.29.04.533l.043.322q.027.122.054.274.042.152.195.152zm3.116 1.894q.166.442.387.885.222.443.428.9.208.442.347.915.138.473.138.962 0 .306-.083.61-.07.306-.236.565.249.015.582-.229.332-.26.664-.595.332-.35.608-.703.277-.366.401-.58.07-.106.166-.244.097-.152.235-.152.124 0 .166.092.042.091.042.214 0 .076-.055.167-.042.077-.07.153-.387.672-.816 1.205-.429.534-.941.902-.497.366-1.12.547-.608.2-1.355.2-.402 0-.872-.091-.456-.093-.76-.413-.07-.076-.11-.153-.042-.076-.042-.183 0-.229.222-.229.082 0 .123.03.056.032.125.077.235.168.47.23.236.06.512.06.552 0 .83-.367.29-.38.29-.96 0-.352-.097-.748-.082-.397-.222-.793-.137-.397-.316-.765-.166-.38-.332-.656-.098.306-.25.688-.139.366-.318.733-.18.366-.388.702-.193.334-.401.564-.07.076-.166.168-.082.075-.193.075-.194 0-.194-.213 0-.121.055-.214.042-.09.111-.183.941-1.297 1.412-2.914-.126-.396-.126-.809 0-.229.07-.533.069-.306.193-.581.125-.274.319-.473.193-.198.441-.198.126 0 .21.091.095.077.137.214.055.122.07.259.027.137.027.26 0 .382-.097.778-.097.38-.222.733zm10.023-.656q.235-.062.567-.214.332-.153.693-.366.358-.215.704-.474.347-.274.622-.564.29-.306.458-.61.179-.306.179-.611 0-.336-.235-.564-.223-.231-.58-.382-.347-.168-.79-.26-.429-.09-.857-.137-.43-.046-.803-.06-.36-.016-.567-.016.07-.382.138-.84.084-.472.223-.824.026-.06.026-.107 0-.09-.096-.107-.083-.014-.138-.014-.248 0-.512.121-.497.23-.65.764-.139.52-.248 1.053-.361.029-.72.09-.36.047-.72.107-.152.03-.346.093-.207.046-.207.274 0 .199.209.199.11 0 .22-.015.097-.032.208-.047.304-.045.608-.061l.622-.06Q44 5.005 43.763 6.623q-.235 1.6-.4 3.25-.056.503-.098 1.022l-.083 1.007-.055.581q-.013.288-.013.58 0 .167.164.197.18.046.292.046.372 0 .538-.106.166-.093.305-.49.374 0 .9-.09.524-.107 1.092-.29.567-.199 1.12-.473.567-.274.996-.641.444-.367.718-.808.278-.444.278-.963 0-.534-.36-.946-.36-.41-.87-.702-.513-.304-1.065-.488-.54-.199-.914-.29zm-1.383.35q.262.046.637.137.372.076.788.215.428.121.843.304.415.169.747.412.332.23.54.534.207.306.207.672 0 .336-.249.626-.235.274-.622.519-.388.229-.857.427-.47.183-.941.32-.458.122-.858.215-.4.075-.636.09-.013-.152-.013-.29v-.305q0-.976.137-1.938zm3.79-3.006q0 .458-.457.839-.442.382-1.05.688-.61.288-1.218.487-.609.199-.94.29l.248-1.648q.125-.84.277-1.663.153 0 .428.015.292.014.637.046.36.03.719.106.374.062.664.184.304.106.498.274.194.154.194.382zm3.406 8.912q.429 0 .858-.306.43-.288.816-.716.387-.428.692-.916.317-.489.525-.855.07-.122.139-.26.07-.136.07-.288 0-.108-.043-.184-.042-.091-.151-.091-.111 0-.18.06-.056.06-.11.153-.099.153-.18.32-.085.153-.181.306-.137.213-.373.533-.222.32-.498.626-.262.29-.554.505-.29.197-.538.197-.292 0-.458-.29-.166-.29-.261-.686-.098-.398-.126-.793-.027-.414-.027-.641v-.336q.013-.214.055-.336.027-.107.097-.23.083-.12.138-.213.166-.306.332-.58.18-.29.332-.595.318-.626.622-1.419.305-.793.554-1.632.249-.84.402-1.68.151-.84.151-1.557 0-.212-.042-.457-.041-.244-.138-.443-.083-.213-.249-.335-.152-.138-.4-.138-.305 0-.61.245-.29.245-.553.61-.248.352-.443.733-.193.382-.304.656-.58 1.48-.816 3.052-.235 1.557-.235 3.158 0 .291.013.764.029.473.084 1.022.056.534.166 1.083.11.534.304.978.194.427.458.7.274.275.662.275zM53.436.732q.082 0 .124.077.042.062.055.153.028.092.028.199v.137q0 .732-.207 1.618-.209.885-.525 1.785-.305.885-.693 1.724-.372.823-.706 1.45-.013-.122-.013-.214v-.23q0-1.098.235-2.288.249-1.205.54-2.258.055-.183.152-.55.11-.365.248-.717.153-.35.346-.61.194-.274.416-.274z" style="stroke-width:.72845292"/><path d="M54.706 10.943q0 .336.068.702.07.365.223.656.151.288.4.473.262.197.637.197.29 0 .566-.12.277-.109.513-.275.4-.291.678-.703.276-.413.456-.886.179-.473.263-.976.082-.519.082-1.022 0-.35-.068-.717-.056-.366-.21-.672-.136-.305-.386-.504-.248-.198-.635-.198-.624 0-1.107.427-.47.412-.803 1.024-.332.61-.51 1.312-.167.7-.167 1.282zm2.587-3.037q.22 0 .36.151.138.139.221.352.083.198.11.443.028.245.028.427 0 .351-.055.732-.056.366-.18.718-.112.35-.305.67-.18.306-.442.534-.138.123-.304.215-.153.076-.332.076-.208 0-.347-.122-.138-.137-.222-.32-.068-.183-.095-.397-.028-.23-.028-.412 0-.352.097-.87.11-.519.303-1.007.21-.49.498-.84.305-.35.693-.35zm6.447-.718q.195 0 .36.076.18.06.318.137.139.077.249.153.11.06.18.06.055 0 .097-.028.056-.048.056-.123 0-.215-.18-.366-.18-.169-.429-.26-.248-.106-.498-.152-.248-.06-.401-.06-.748 0-1.397.32-.65.303-1.177.885-.261.288-.496.656-.236.366-.416.778-.18.411-.29.854-.097.427-.097.839 0 .274.04.534.057.26.167.458.125.2.319.32.193.123.483.123.416 0 .845-.306.441-.304.83-.732.386-.443.705-.916.332-.487.526-.854.026.305.026.626.014.304.014.61 0 .366-.068 1.024-.056.64-.18 1.387-.124.764-.332 1.525-.194.78-.47 1.405-.278.642-.637 1.038-.345.397-.788.397-.194 0-.29-.107-.084-.092-.153-.23-.055-.122-.124-.229-.055-.09-.18-.09-.138 0-.222.106-.082.123-.082.26 0 .076.026.137l.056.153q.166.32.429.473.263.152.595.152.858 0 1.453-.549.595-.55.996-1.435.401-.87.635-1.968.235-1.099.346-2.197.125-1.1.152-2.077.042-.99.042-1.646 0-.26-.139-.429-.124-.167-.372-.167-.292 0-.498.274-.21.26-.319.52-.11.305-.429.824-.317.519-.719 1.022-.388.488-.816.854-.415.352-.732.352-.25 0-.347-.169-.083-.183-.083-.427 0-.32.11-.686.125-.366.305-.718.18-.35.387-.656.222-.32.416-.548.428-.49.981-.84.568-.367 1.217-.367z" style="stroke-width:.72845292"/></g></svg>